<?xml version="1.0" standalone="no"?>
<!DOCTYPE svg PUBLIC "-//W3C//DTD SVG 20010904//EN"
 "http://www.w3.org/TR/2001/REC-SVG-20010904/DTD/svg10.dtd">
<svg version="1.0" xmlns="http://www.w3.org/2000/svg"
 width="460.000000pt" height="460.000000pt" viewBox="0 0 460.000000 460.000000"
 preserveAspectRatio="xMidYMid meet">
<metadata>
Created by potrace 1.14, written by Peter Selinger 2001-2017
</metadata>
<g transform="translate(0.000000,460.000000) scale(0.100000,-0.100000)"
fill="#000000" stroke="none">
<path d="M1284 4020 c-15 -6 -29 -30 -45 -77 -20 -59 -23 -88 -23 -213 0 -86
5 -162 12 -188 l13 -43 -45 -57 c-50 -62 -106 -173 -134 -261 -14 -45 -17 -91
-16 -236 1 -157 5 -193 26 -277 l25 -98 -36 -1 c-20 -1 -61 -3 -91 -4 -30 -2
-113 -6 -185 -10 -203 -10 -478 -41 -547 -61 -32 -10 -20 -27 15 -20 121 21
583 56 748 56 103 0 117 -2 122 -17 2 -10 8 -25 11 -34 6 -14 -9 -17 -121 -23
-273 -14 -747 -96 -786 -135 -26 -26 15 -22 173 18 173 44 378 72 638 87 l118
7 39 -58 c41 -63 151 -175 170 -175 7 0 18 -7 25 -15 16 -19 90 -60 137 -75
21 -7 43 -16 48 -20 24 -19 188 -60 280 -70 55 -7 101 -13 102 -14 1 -1 -22
-30 -52 -65 -40 -48 -57 -77 -67 -120 -14 -56 -14 -56 -68 -74 -76 -26 -216
-27 -292 -2 -48 16 -65 28 -115 87 -145 171 -168 195 -214 222 -61 34 -158 41
-187 12 -16 -16 -14 -20 33 -62 28 -25 64 -54 80 -64 17 -11 42 -38 57 -62 39
-61 88 -155 88 -169 0 -24 97 -132 152 -168 75 -51 133 -63 298 -60 l135 2 3
-181 c3 -218 -1 -231 -87 -298 -62 -48 -79 -85 -45 -98 32 -12 101 -5 169 19
54 19 79 34 112 70 50 55 50 54 53 390 1 220 4 255 20 293 36 80 41 56 39
-190 -4 -456 -13 -526 -75 -601 -13 -16 -24 -35 -24 -43 0 -21 43 -35 77 -24
107 32 177 93 208 181 22 60 33 248 31 522 l-2 227 22 0 22 0 4 -347 c3 -305
6 -354 22 -397 32 -88 74 -128 183 -174 94 -40 135 5 73 80 -62 75 -64 89 -68
467 -3 281 -1 342 10 339 7 -3 22 -22 33 -44 17 -35 19 -66 23 -324 l4 -285
29 -51 c28 -50 35 -55 119 -90 51 -22 172 -26 191 -7 14 14 -12 51 -58 82 -18
11 -45 39 -59 61 l-26 40 1 257 c2 403 -18 506 -115 601 -30 28 -53 52 -51 52
38 0 266 34 302 45 106 33 236 88 271 116 20 16 40 29 45 29 4 0 25 18 46 41
21 23 48 52 61 66 12 13 22 28 22 34 0 5 12 28 27 50 l27 41 96 -6 c407 -28
567 -50 746 -102 87 -25 101 -26 91 -2 -13 35 -427 106 -745 129 l-173 12 6
26 c4 14 10 30 15 34 8 9 275 10 400 1 86 -6 429 -41 478 -50 33 -5 45 11 15
20 -108 33 -561 75 -815 76 l-76 0 13 53 c33 127 44 342 24 467 -20 127 -75
278 -113 309 -9 8 -16 20 -16 28 0 7 -20 36 -45 62 l-46 49 11 63 c20 128 5
344 -30 409 -13 24 -75 27 -162 9 -57 -13 -232 -94 -317 -147 -42 -27 -60 -33
-90 -29 -20 3 -90 12 -156 22 -208 30 -551 11 -730 -40 -14 -4 -43 9 -90 40
-107 71 -262 142 -325 149 -30 4 -66 9 -80 11 -14 2 -35 0 -46 -5z m1036 -954
c129 0 312 2 405 5 170 4 170 4 245 -26 136 -54 218 -163 240 -319 22 -158 0
-288 -66 -388 -100 -151 -226 -210 -482 -229 -177 -13 -695 -6 -806 11 -38 6
-114 29 -168 53 -170 71 -271 185 -302 339 -20 98 -20 157 0 249 26 114 117
229 213 271 104 44 136 49 316 41 94 -5 276 -8 405 -7z m-1210 -1021 c0 -15
-35 -26 -56 -18 -19 7 -18 20 2 31 21 12 54 4 54 -13z m85 -50 c0 -22 -31 -33
-47 -17 -17 17 -1 44 24 40 15 -2 23 -10 23 -23z m55 -70 c0 -15 -43 -12 -48
3 -3 10 4 13 22 10 15 -2 26 -7 26 -13z m50 -80 c0 -15 -43 -12 -48 3 -3 10 4
13 22 10 15 -2 26 -7 26 -13z m66 -66 c8 -13 -15 -30 -36 -26 -8 1 -16 10 -18
20 -3 12 3 17 22 17 14 0 28 -5 32 -11z m77 -55 c12 -12 -6 -34 -29 -34 -17 0
-24 6 -24 20 0 14 7 20 23 20 13 0 26 -3 30 -6z m325 -37 c3 -12 -3 -17 -21
-17 -31 0 -40 10 -25 27 15 18 42 12 46 -10z m-218 -11 c0 -17 -24 -28 -45
-20 -29 12 -14 34 22 34 13 0 23 -6 23 -14z m110 0 c0 -17 -24 -28 -45 -20
-29 12 -14 34 22 34 13 0 23 -6 23 -14z"/>
<path d="M1735 2789 c-51 -45 -65 -78 -65 -154 0 -80 17 -124 62 -159 44 -33
80 -33 123 0 60 46 84 159 50 242 -20 47 -79 102 -110 102 -13 0 -40 -14 -60
-31z"/>
<path d="M2799 2808 c-45 -18 -87 -104 -88 -178 -1 -53 36 -140 70 -164 59
-41 137 -3 163 79 20 65 20 109 1 167 -27 78 -89 119 -146 96z"/>
<path d="M2270 2420 c-11 -11 -20 -24 -20 -29 0 -18 31 -41 55 -41 35 0 48 46
19 74 -20 21 -30 20 -54 -4z"/>
<path d="M2187 2283 c-3 -5 3 -23 13 -41 25 -41 81 -57 143 -41 38 9 46 16 54
44 14 45 4 52 -19 15 -41 -69 -120 -62 -172 14 -7 10 -16 15 -19 9z"/>
</g>
</svg>
